<?xml version="1.0" encoding="UTF-8" standalone="no"?>
<!-- Created with Inkscape (http://www.inkscape.org/) -->

<svg
   width="178.89256mm"
   height="187.82841mm"
   viewBox="0 0 178.89256 187.82841"
   version="1.1"
   id="svg1"
   xml:space="preserve"
   xmlns:inkscape="http://www.inkscape.org/namespaces/inkscape"
   xmlns:sodipodi="http://sodipodi.sourceforge.net/DTD/sodipodi-0.dtd"
   xmlns="http://www.w3.org/2000/svg"
   xmlns:svg="http://www.w3.org/2000/svg"><sodipodi:namedview
     id="namedview1"
     pagecolor="#505050"
     bordercolor="#eeeeee"
     borderopacity="1"
     inkscape:showpageshadow="0"
     inkscape:pageopacity="0"
     inkscape:pagecheckerboard="0"
     inkscape:deskcolor="#505050"
     inkscape:document-units="mm"
     inkscape:export-bgcolor="#ffffff00" /><defs
     id="defs1" /><g
     inkscape:label="Layer 1"
     inkscape:groupmode="layer"
     id="layer1"
     transform="translate(-17.919453,-45.314643)"><path
       style="fill:#000000"
       d="m 96.245655,232.3906 c 0.12272,-0.41386 0.23162,-1.94309 0.242,-3.39829 0.016,-2.24121 0.11406,-2.82792 0.64127,-3.83646 0.34231,-0.65485 1.97554,-3.23888 3.629375,-5.7423 1.65385,-2.50341 3.00699,-4.6763 3.00699,-4.82864 0,-0.15234 -0.14882,-0.27367 -0.33072,-0.26962 -0.18191,0.004 -0.79843,0.36124 -1.37005,0.79375 -0.57163,0.43252 -1.23185,0.78639 -1.46716,0.78639 -0.23531,0 -1.374955,-0.85055 -2.532555,-1.89011 -1.15759,-1.03956 -3.17628,-2.75129 -4.48596,-3.80385 -1.309691,-1.05255 -3.873441,-3.38693 -5.697231,-5.18749 -1.82379,-1.80057 -4.49028,-4.64298 -5.92554,-6.31647 -1.43526,-1.67349 -3.63401,-4.33955 -4.88611,-5.92458 -1.2521,-1.58503 -2.9126,-3.60665 -3.69,-4.49249 -0.7774,-0.88583 -2.4127,-2.94765 -3.63402,-4.5818 -1.22131,-1.63416 -3.02603,-4.28097 -4.0105,-5.88181 -0.98447,-1.60084 -2.52631,-4.19531 -3.42632,-5.76549 -0.90001,-1.57018 -1.95676,-3.74784 -2.34834,-4.83924 -0.39158,-1.09141 -1.09891,-2.75828 -1.57185,-3.70417 -0.47294,-0.94588 -1.36165,-3.26566 -1.97492,-5.15506 -0.61326,-1.88939 -1.22541,-3.64152 -1.36033,-3.89361 -0.13492,-0.2521 -0.74929,-0.58207 -1.36528,-0.73327 -0.61599,-0.1512 -2.66779,-0.76817 -4.55956,-1.37104 -1.89177,-0.60287 -3.92772,-1.37072 -4.52434,-1.70632 -0.59661,-0.3356 -1.7277,-1.30207 -2.51354,-2.14769 -0.78583,-0.84563 -2.15451,-2.09403 -3.0415,-2.77422 -0.88699,-0.68019 -1.81247,-1.54159 -2.05662,-1.91421 -0.24415,-0.37262 -0.56023,-0.6775 -0.7024,-0.6775 -0.14216,0 -0.25848,0.13759 -0.25848,0.30576 0,0.16816 0.29125,0.6876 0.64722,1.1543 0.35597,0.4667 0.9472,1.91551 1.31386,3.21957 0.36665,1.30407 1.09476,3.61237 1.61802,5.12956 0.52326,1.51719 1.46938,4.60399 2.10249,6.85956 0.63311,2.25558 2.99989,9.69698 5.25951,16.53646 2.25962,6.83948 4.52552,13.80464 5.03534,15.47813 0.50982,1.67349 1.77829,5.78114 2.81882,9.12812 1.04052,3.34698 2.4737,8.39953 3.18483,11.22789 0.71112,2.82836 1.24835,5.18708 1.19383,5.2416 -0.0545,0.0545 -0.28143,-0.41413 -0.50424,-1.04143 -0.22282,-0.62731 -0.88935,-2.7038 -1.48118,-4.61443 -0.59183,-1.91064 -1.31114,-3.75611 -1.59847,-4.10105 -0.2994,-0.35942 -0.52618,-0.4782 -0.53123,-0.27823 -0.005,0.19191 0.28419,1.50159 0.64228,2.91041 0.3581,1.40882 0.8854,3.24008 1.17177,4.06946 0.28638,0.82939 1.35653,3.38923 2.37811,5.68854 1.02158,2.29932 2.23758,4.89495 2.70223,5.76808 0.46464,0.87312 0.64611,1.40145 0.40327,1.17405 -0.24284,-0.22739 -1.22853,-1.71567 -2.19042,-3.30729 -0.96188,-1.59162 -2.57187,-4.3226 -3.57775,-6.06885 -1.00587,-1.74625 -2.13078,-3.82984 -2.49979,-4.63021 -0.369,-0.80036 -1.77797,-3.71739 -3.13102,-6.48229 -1.35306,-2.76489 -3.20026,-6.57489 -4.1049,-8.46666 -0.90464,-1.89177 -2.44857,-5.22552 -3.43097,-7.40834 -0.98239,-2.18281 -2.39152,-5.3975 -3.13139,-7.14375 -0.73987,-1.74625 -1.81602,-4.30609 -2.39144,-5.68854 -0.57543,-1.38245 -1.47102,-3.52557 -1.99021,-4.7625 -0.51919,-1.23693 -1.71395,-4.21349 -2.65501,-6.61458 -0.94107,-2.4011 -2.09075,-5.19906 -2.55486,-6.21771 -0.46411,-1.01865 -1.29051,-3.16177 -1.83644,-4.7625 -0.54594,-1.60073 -1.32061,-3.68432 -1.72151,-4.63021 -0.40089,-0.94588 -1.20456,-3.20807 -1.78594,-5.02708 -0.58138,-1.81901 -1.41354,-4.02167 -1.84924,-4.89479 -0.43571,-0.87313 -1.03814,-1.85539 -1.33875,-2.18282 -0.46352,-0.50486 -0.81858,-0.59531 -2.33691,-0.59531 -0.98469,0 -1.85012,-0.0967 -1.92319,-0.21494 -0.0731,-0.11822 0.0687,-0.51429 0.31512,-0.88016 0.24637,-0.36587 0.9242,-1.24067 1.50629,-1.944 0.58208,-0.70333 3.92539,-3.78984 7.42958,-6.8589 3.50419,-3.06907 8.13522,-7.06841 10.29117,-8.88742 2.15596,-1.81901 5.18249,-4.38301 6.72562,-5.69779 1.54314,-1.31477 3.71417,-3.10071 4.8245,-3.96875 1.11034,-0.86804 3.72971,-3.00932 5.82083,-4.75841 2.09113,-1.74909 4.45689,-3.66766 5.25725,-4.2635 0.80037,-0.59584 2.32577,-1.866742 3.38978,-2.824218 1.06401,-0.95749 2.58166,-2.17041 3.37256,-2.69538 0.9266,-0.61504 2.65446,-2.3846 4.85855,-4.975818 1.88131,-2.211733 4.04016,-4.854771 4.79746,-5.873416 0.75729,-1.018646 2.10966,-2.685521 3.00526,-3.704167 0.8956,-1.018646 2.40207,-2.804583 3.34772,-3.96875 0.94565,-1.164167 2.36303,-3.009636 3.14972,-4.101042 0.7867,-1.091406 2.33406,-3.353594 3.43858,-5.027083 1.10453,-1.67349 2.65796,-4.084505 3.45209,-5.357813 0.794131,-1.273307 1.521281,-2.315104 1.615891,-2.315104 0.0946,0 0.84197,0.551538 1.66079,1.225639 0.81883,0.674102 1.93219,1.829691 2.47414,2.567976 0.8137,1.108477 0.986,1.564978 0.98902,2.620277 0.002,0.844593 0.13759,1.360785 0.398635,1.522249 0.32695,0.202225 0.2322,0.417085 -0.550025,1.247313 -0.51977,0.551653 -1.71549,2.015036 -2.65716,3.251963 -0.94167,1.236927 -2.43513,3.439583 -3.3188,4.894792 -0.883671,1.455208 -1.860501,3.122083 -2.170741,3.704166 -0.31024,0.582084 -0.82347,1.383807 -1.14053,1.781608 -0.31705,0.3978 -0.5249,0.765757 -0.46188,0.81768 0.063,0.05192 1.60285,-0.07194 3.42186,-0.275242 1.819011,-0.203307 5.152761,-0.452201 7.408326,-0.553097 l 4.10105,-0.183449 0.19831,-5.939776 c 0.12035,-3.604398 0.30963,-6.049053 0.48143,-6.217709 0.19895,-0.195307 0.48347,-0.04655 0.9571,0.500392 l 0.67399,0.778324 -0.0971,5.570541 -0.0971,5.570541 2.14847,0.327438 c 1.18166,0.180092 3.47054,0.801038 5.08641,1.37988 1.61588,0.578842 3.32797,1.251179 3.80466,1.494082 0.47669,0.242903 1.70051,1.065531 2.71959,1.828061 1.01908,0.762531 2.33282,1.907888 2.91942,2.545239 0.5866,0.637351 1.58721,1.849245 2.22357,2.693105 0.63636,0.84385 1.36862,1.64752 1.62725,1.78593 0.25862,0.13841 0.55032,0.25166 0.64821,0.25166 0.0979,0 0.11134,-0.17371 0.0299,-0.38601 -0.0815,-0.21231 -1.39823,-2.2727 -2.92613,-4.578652 -1.5279,-2.305949 -3.23867,-4.721852 -3.80172,-5.368674 -0.56304,-0.646821 -1.54259,-1.890413 -2.17677,-2.763538 -0.63419,-0.873125 -1.8653,-2.480469 -2.73582,-3.571875 -0.87051,-1.091407 -3.73295,-4.187032 -6.36098,-6.879167 C 107.386,68.7408 101.8313,63.085332 97.670265,58.865228 93.509215,54.645123 88.939944,49.904239 87.516314,48.32993 c -1.42362,-1.57431 -2.52727,-2.923522 -2.45254,-2.99825 0.0747,-0.07473 0.94963,0.103486 1.94422,0.39603 0.99459,0.292544 3.60858,1.178351 5.80888,1.96846 2.200291,0.790109 4.879991,1.936938 5.954881,2.548508 1.0749,0.611571 3.501375,2.258928 5.392175,3.660793 2.09423,1.552685 4.83723,3.950632 7.01844,6.135551 1.96934,1.972688 4.81644,5.060904 6.32689,6.862701 1.51045,1.801798 3.59011,4.185532 4.62147,5.297188 1.03135,1.111655 3.44498,3.923707 5.36361,6.249004 1.91863,2.325297 4.67735,5.74405 6.1305,7.59723 1.45315,1.853179 3.32647,4.353492 4.16294,5.55625 0.83647,1.202757 2.34412,3.285257 3.35034,4.627777 1.00622,1.34252 2.48464,3.039716 3.28538,3.771548 0.80074,0.73183 2.54702,2.03601 3.88062,2.89818 1.33359,0.86216 3.4119,2.26059 4.61846,3.10761 1.20656,0.84703 4.30219,3.13094 6.87917,5.07537 2.57698,1.94442 7.48339,5.63735 10.90313,8.2065 3.41974,2.56916 8.83708,6.76668 12.03854,9.32784 3.20146,2.56115 6.33014,5.20921 6.95263,5.88458 0.62249,0.67537 1.23967,1.51166 1.37151,1.85842 0.16131,0.42429 0.10762,1.13627 -0.16418,2.17711 -0.22213,0.85065 -1.27657,3.33423 -2.34318,5.51906 -1.06662,2.18483 -2.68163,5.2821 -3.58893,6.88283 -0.90729,1.60073 -1.93014,3.4462 -2.273,4.10104 -0.34285,0.65485 -1.46906,3.09563 -2.50267,5.42396 -1.03361,2.32834 -1.99764,4.38041 -2.1423,4.56017 -0.14465,0.17976 -1.18372,2.14429 -2.30904,4.36563 -1.12533,2.22133 -3.05521,6.00332 -4.28864,8.40441 -1.23344,2.40109 -3.76864,7.28266 -5.63378,10.84792 -1.86515,3.56526 -4.15684,7.73245 -5.09265,9.26041 -0.9358,1.52797 -2.15218,3.43297 -2.70306,4.23334 -0.55089,0.80036 -1.34658,2.00541 -1.7682,2.67789 -0.42163,0.67248 -1.40359,2.19053 -2.18214,3.37344 -0.77855,1.18291 -1.46671,2.15075 -1.52925,2.15075 -0.0625,0 0.12846,-0.44648 0.42444,-0.99219 0.29599,-0.5457 1.07345,-2.12202 1.72769,-3.50293 0.65425,-1.38091 1.18754,-2.75013 1.18508,-3.04271 -0.003,-0.41382 -0.13129,-0.32631 -0.57559,0.39408 -0.31413,0.50932 -1.31143,1.93807 -2.21624,3.175 -0.9048,1.23693 -2.00753,3.05263 -2.45052,4.0349 -0.44298,0.98226 -0.93195,1.78593 -1.0866,1.78593 -0.15464,0 -0.28117,-0.15595 -0.28117,-0.34657 0,-0.19061 0.58401,-2.95882 1.29781,-6.15156 0.79399,-3.55145 1.86061,-7.39705 2.74754,-9.90603 0.79736,-2.25558 1.80728,-4.81542 2.24428,-5.68854 0.437,-0.87313 1.27475,-2.7186 1.86167,-4.10105 0.58691,-1.38244 1.92259,-4.29947 2.96816,-6.48229 1.04558,-2.18281 2.61489,-5.51656 3.48737,-7.40833 0.87248,-1.89177 2.03816,-4.57068 2.59041,-5.95313 0.55224,-1.38244 2.03323,-5.01385 3.29108,-8.06979 1.25786,-3.05593 2.59491,-6.68734 2.97124,-8.06979 0.37632,-1.38245 0.74614,-2.7353 0.82181,-3.00635 0.12435,-0.44536 0.0256,-0.4751 -1.02554,-0.30885 -0.63972,0.10118 -2.35375,0.4632 -3.80896,0.80449 -1.45521,0.34129 -4.81245,1.04582 -7.46055,1.56562 -2.6481,0.5198 -5.34874,0.94509 -6.00144,0.94509 -0.96553,0 -1.21894,-0.1015 -1.35956,-0.54455 -0.095,-0.2995 -0.0891,-1.1627 0.0132,-1.91823 0.10231,-0.75552 0.34811,-1.69026 0.54622,-2.0772 0.1981,-0.38694 1.20697,-1.26646 2.24191,-1.95449 1.03495,-0.68803 2.97226,-1.65832 4.30514,-2.15619 1.33288,-0.49787 3.55451,-1.19221 4.93696,-1.54298 1.38245,-0.35076 4.06029,-0.88845 5.95076,-1.19487 1.89047,-0.30641 3.47209,-0.59198 3.51471,-0.6346 0.0426,-0.0426 -0.42587,-0.71837 -1.04108,-1.50167 -0.6152,-0.7833 -2.19682,-2.50065 -3.5147,-3.81634 -1.31788,-1.31568 -4.88615,-4.47084 -7.92947,-7.01145 -3.04333,-2.54062 -6.25802,-5.20948 -7.14375,-5.9308 -0.88574,-0.72133 -2.65121,-2.23937 -3.92328,-3.37344 -1.27207,-1.13407 -2.43119,-2.06194 -2.57583,-2.06194 -0.14463,0 -0.015,0.62508 0.28805,1.38906 0.30306,0.76399 0.76839,2.10344 1.03406,2.97657 0.26567,0.87312 0.89889,3.19484 1.40715,5.15937 0.50826,1.96453 1.08299,4.46484 1.27718,5.55625 0.25382,1.42653 0.34135,4.4389 0.31137,10.71563 -0.03,6.29197 -0.16008,9.62324 -0.46545,11.92411 -0.23306,1.75607 -0.58615,3.78013 -0.78465,4.49791 -0.19849,0.71778 -0.89424,3.21006 -1.54612,5.53839 -0.70894,2.53212 -1.69551,5.2966 -2.45502,6.87917 -0.69838,1.45521 -2.03054,4.00777 -2.96035,5.67235 -0.92982,1.66459 -2.62135,4.1649 -3.75896,5.55625 -1.13761,1.39135 -2.53165,3.25612 -3.09786,4.14393 -0.56621,0.8878 -1.80338,2.62612 -2.74926,3.86293 -0.94589,1.2368 -2.8565,3.7251 -4.2458,5.52955 -1.38931,1.80445 -3.35217,4.47145 -4.36191,5.92666 -1.00975,1.4552 -3.04503,4.19364 -4.52284,6.08541 -1.47781,1.89177 -3.84232,4.68974 -5.25446,6.21771 -1.41214,1.52797 -3.71046,4.14734 -5.10736,5.82083 -1.3969,1.67349 -3.96103,4.45124 -5.69806,6.17277 -1.73703,1.72154 -4.48205,4.32263 -6.10005,5.78021 -1.617995,1.45759 -3.284945,2.82845 -3.704335,3.04636 l -0.76252,0.3962 z m 24.717555,-26.28475 c 0.60919,-0.72761 1.04808,-1.32292 0.97532,-1.32292 -0.0728,0 -0.63072,0.59531 -1.2399,1.32292 -0.60919,0.7276 -1.04808,1.32291 -0.97532,1.32291 0.0728,0 0.63072,-0.59531 1.2399,-1.32291 z m -14.2875,-2.46586 c 1.38245,-1.14445 3.51141,-2.93306 4.73103,-3.97467 1.21962,-1.04162 4.25571,-4.21637 6.74687,-7.055 2.49117,-2.83863 5.14476,-5.93894 5.89688,-6.88957 0.75211,-0.95062 1.95763,-2.67992 2.67892,-3.84288 0.72129,-1.16295 1.69147,-2.86732 2.15597,-3.78748 0.46449,-0.92016 0.78846,-1.81916 0.71991,-1.99778 -0.098,-0.2553 -0.56862,-0.24953 -2.20054,0.027 -1.14175,0.19344 -3.3856,0.72578 -4.98633,1.18296 -1.60073,0.45718 -3.38199,0.93994 -3.95835,1.0728 -0.57636,0.13286 -2.3623,0.41549 -3.96875,0.62806 -1.60645,0.21257 -4.28241,0.50642 -5.94658,0.65299 -1.66417,0.14657 -4.7598,0.27004 -6.87917,0.27436 -2.124555,0.004 -5.173445,-0.17863 -6.795635,-0.40781 -1.618241,-0.22861 -3.627821,-0.59423 -4.465751,-0.81248 -0.83792,-0.21825 -2.78813,-0.89048 -4.33379,-1.49384 -1.54567,-0.60336 -3.34609,-1.39188 -4.00093,-1.75227 -0.65484,-0.36039 -1.80185,-1.05727 -2.5489,-1.54862 -0.74705,-0.49136 -1.68762,-1.21841 -2.09015,-1.61568 -0.40253,-0.39728 -1.34577,-1.55575 -2.09609,-2.5744 -0.75032,-1.01865 -1.99851,-2.92365 -2.77376,-4.23333 -0.77525,-1.30969 -1.58002,-2.57779 -1.78839,-2.81801 -0.28352,-0.32686 -0.30012,-0.48541 -0.066,-0.63012 0.17208,-0.10635 0.98351,-0.0379 1.80317,0.15217 0.81966,0.19004 2.08561,0.60441 2.81322,0.92082 0.7276,0.31641 1.85869,0.98589 2.51354,1.48775 0.65484,0.50185 1.96453,1.21937 2.91041,1.59449 0.94589,0.37511 3.56526,1.1232 5.82084,1.66242 2.25557,0.53922 5.62624,1.20451 7.490371,1.47841 1.86413,0.27391 4.75341,0.57957 6.420615,0.67924 l 3.03128,0.18123 -0.0706,-6.97289 -0.0706,-6.97288 -2.23581,-0.34684 c -1.229695,-0.19075 -3.075165,-0.5934 -4.101045,-0.89476 -1.02587,-0.30135 -2.59681,-0.95294 -3.49096,-1.44796 -0.894151,-0.49503 -2.388851,-1.64539 -3.321551,-2.55635 -0.98169,-0.95882 -2.21067,-2.54766 -2.91842,-3.77297 -0.67244,-1.16417 -1.46004,-2.83105 -1.75022,-3.70417 -0.29019,-0.87313 -0.65633,-2.51885 -0.81366,-3.65717 -0.15732,-1.13831 -0.28236,-2.98378 -0.27787,-4.10104 0.004,-1.11726 0.12053,-2.89647 0.25786,-3.95381 0.13733,-1.05734 0.56974,-2.72421 0.96091,-3.70417 0.39117,-0.97995 1.34553,-2.76632 2.12078,-3.96971 0.77526,-1.20339 2.21441,-2.98125 3.19811,-3.95079 0.9837,-0.96954 2.493591,-2.21864 3.355301,-2.77578 0.86171,-0.55714 2.46906,-1.29753 3.57187,-1.64531 1.10282,-0.34778 2.691305,-0.71761 3.529975,-0.82185 0.83866,-0.10423 1.59588,-0.30443 1.68269,-0.4449 0.0868,-0.14046 0.25461,-2.00178 0.3729,-4.13626 0.11828,-2.13448 0.29751,-6.25109 0.39829,-9.14802 l 0.18324,-5.267148 -2.87474,0.17527 c -1.581095,0.0964 -3.886765,0.34468 -5.123685,0.55174 -1.23693,0.20706 -3.732121,0.69444 -5.544871,1.08306 -1.92554,0.41281 -4.56574,1.225506 -6.35,1.954636 -1.67975,0.686432 -4.06612,1.526982 -5.30305,1.867902 -1.23693,0.34093 -2.47117,0.80937 -2.74277,1.04098 -0.2716,0.23162 -0.86519,0.9569 -1.31909,1.61175 -0.4539,0.65484 -1.56951,2.55984 -2.47913,4.23333 -0.90962,1.67349 -2.42413,4.61957 -3.36558,6.54684 -0.94146,1.92727 -1.94578,4.30852 -2.23183,5.29167 -0.28606,0.98314 -0.66343,2.5019 -0.8386,3.37503 -0.2154,1.07359 -0.26275,2.82946 -0.14627,5.42396 0.0947,2.11005 0.232,7.58692 0.30506,12.17083 0.0773,4.84944 0.29819,9.71729 0.52829,11.64167 0.2175,1.81901 0.58234,3.95855 0.81075,4.75453 0.2284,0.79599 0.65831,1.92708 0.95535,2.51355 0.29704,0.58646 0.86599,1.48301 1.26433,1.99233 0.39834,0.50933 1.5239,2.41106 2.50125,4.22607 0.97735,1.81501 2.73408,4.52225 3.90385,6.01609 1.16977,1.49383 2.65645,3.20423 3.30374,3.80088 0.78168,0.72053 1.12319,1.22475 1.01698,1.50153 -0.0974,0.25371 0.55959,1.61592 1.67946,3.48243 1.01165,1.68614 2.53341,3.98394 3.38169,5.10622 0.84827,1.12228 2.96375,3.92025 4.70106,6.21771 1.73731,2.29746 4.161661,5.42736 5.387441,6.95532 1.22578,1.52797 3.25716,3.86241 4.514165,5.18765 l 2.28548,2.40951 0.92604,-0.68379 c 0.50932,-0.37609 2.05713,-1.62018 3.43958,-2.76464 z m 15.90875,0.41534 c 0.32911,-0.41965 0.31975,-0.42901 -0.0999,-0.0999 -0.25467,0.19972 -0.46303,0.40808 -0.46303,0.46302 0,0.0549 0.045,0.0999 0.0999,0.0999 0.0549,0 0.2633,-0.20836 0.46302,-0.46302 z m 1.54299,-2.0751 c 0.49718,-0.69231 0.78974,-1.18815 0.65013,-1.10187 -0.1396,0.0863 -0.6606,0.7233 -1.15778,1.41561 -0.49717,0.6923 -0.78973,1.18814 -0.65013,1.10186 0.1396,-0.0863 0.66061,-0.7233 1.15778,-1.4156 z m -28.806705,-1.0999 c -0.1436,-0.25466 -0.71334,-1.02393 -1.26608,-1.70948 -0.55274,-0.68555 -2.002641,-2.41196 -3.221981,-3.83646 -1.21934,-1.4245 -2.3907,-2.69109 -2.60302,-2.81464 -0.32885,-0.19137 -0.33701,-0.13259 -0.0551,0.39687 0.18202,0.34184 1.2226,1.74271 2.31238,3.11306 1.08978,1.37035 2.64754,3.12652 3.461691,3.9026 0.81415,0.77609 1.51467,1.41107 1.55672,1.41107 0.042,0 -0.041,-0.20836 -0.18464,-0.46302 z m 29.875795,-0.46302 c 0,-0.0728 -0.0595,-0.1323 -0.13229,-0.1323 -0.0728,0 -0.13229,0.0595 -0.13229,0.1323 0,0.0728 0.0595,0.13229 0.13229,0.13229 0.0728,0 0.13229,-0.0595 0.13229,-0.13229 z m -16.42208,-30.28335 c 1.24678,-0.13923 3.45949,-0.3808 4.91712,-0.53683 1.45764,-0.15603 3.24358,-0.44627 3.96875,-0.64497 0.72518,-0.19871 3.09857,-0.92017 5.27421,-1.60326 2.17564,-0.68308 4.73998,-1.63692 5.69852,-2.11963 0.95855,-0.48272 2.4527,-1.16779 3.32034,-1.52238 0.86763,-0.35459 2.59865,-1.31235 3.8467,-2.12836 1.24805,-0.81601 2.75865,-2.01467 3.35689,-2.66368 0.59823,-0.64901 1.37864,-1.7563 1.73423,-2.46065 0.35558,-0.70436 1.00601,-2.41174 1.44538,-3.79419 0.43937,-1.38244 1.00426,-3.70416 1.25533,-5.15937 0.30899,-1.791 0.46594,-4.22729 0.48578,-7.54063 0.0161,-2.69213 -0.11017,-6.44677 -0.28065,-8.34364 -0.20758,-2.30961 -0.71137,-5.09482 -1.52512,-8.43171 -0.66834,-2.74056 -1.33337,-5.20373 -1.47786,-5.47371 -0.14448,-0.26997 -0.38175,-1.11863 -0.52726,-1.8859 -0.14551,-0.76727 -0.60724,-2.12732 -1.02607,-3.02233 -0.41883,-0.89502 -0.95266,-2.28485 -1.18629,-3.08853 -0.32466,-1.11678 -0.69699,-1.70017 -1.57953,-2.47489 -0.63511,-0.55751 -2.09311,-1.52474 -3.24,-2.14939 -1.14689,-0.62465 -2.7948,-1.54144 -3.66202,-2.0373 -0.86722,-0.49586 -2.59362,-1.22839 -3.83646,-1.62785 -1.24283,-0.39945 -3.11886,-1.17421 -4.16896,-1.721672 -1.05009,-0.54746 -2.95509,-1.302926 -4.23333,-1.678816 -1.27824,-0.3759 -3.13554,-0.92616 -4.12733,-1.22281 -0.99179,-0.29665 -2.92991,-0.6712 -4.30694,-0.83235 -2.25528,-0.26391 -2.54889,-0.24783 -2.95925,0.1621 -0.39383,0.39342 -0.48084,1.30529 -0.64217,6.729968 -0.10264,3.45118 -0.25867,12.64472 -0.34673,20.43008 -0.10437,9.22754 -0.0574,15.84179 0.13499,19.00006 0.16231,2.66466 0.36084,5.01615 0.44118,5.22552 0.0804,0.20937 0.41236,0.38067 0.73781,0.38067 0.32545,0 1.25141,-0.22696 2.05768,-0.50436 0.80628,-0.2774 2.46203,-1.07389 3.67945,-1.76998 1.21742,-0.69609 2.59963,-1.5542 3.07159,-1.90692 0.4796,-0.35843 1.22434,-1.38524 1.68839,-2.32786 0.66514,-1.35109 0.83605,-2.04241 0.85925,-3.47569 0.02,-1.23789 -0.16723,-2.39042 -0.60778,-3.74063 -0.35022,-1.07332 -1.22,-2.84494 -1.93285,-3.93692 -0.71286,-1.09199 -1.92163,-2.61095 -2.68616,-3.37548 -0.92372,-0.92372 -2.14495,-1.75545 -3.64028,-2.47923 -1.23763,-0.59905 -2.52673,-1.08918 -2.86466,-1.08918 h -0.61442 l 0.14118,-3.9833 c 0.0777,-2.19082 0.19928,-4.0414 0.27028,-4.11241 0.071,-0.071 1.24516,0.10431 2.60923,0.38958 1.36407,0.28526 3.14751,0.76873 3.9632,1.07438 0.81568,0.30564 2.06584,0.93932 2.77812,1.40817 0.71229,0.46886 2.36663,1.92527 3.67631,3.23646 1.30969,1.3112 2.70688,2.99213 3.10488,3.73541 0.39799,0.74327 0.9774,2.41014 1.28757,3.70416 0.50297,2.09833 0.54893,2.86778 0.42502,7.11526 -0.0811,2.78176 -0.30986,5.54763 -0.54992,6.65027 -0.22605,1.03827 -0.61776,2.40749 -0.87048,3.04271 -0.25271,0.63521 -1.13898,2.11322 -1.96949,3.28444 -0.83051,1.17123 -2.00995,2.58117 -2.62097,3.13319 -0.61103,0.55203 -1.82406,1.34093 -2.69563,1.75312 -0.87157,0.41218 -2.97247,1.06695 -4.66866,1.45504 -1.69619,0.38808 -3.38164,0.79379 -3.74544,0.90158 l -0.66146,0.19597 -0.13229,6.46059 c -0.0728,3.55333 -0.0886,6.72848 -0.0353,7.05591 0.0533,0.32742 0.2834,0.59531 0.51124,0.59531 0.22785,0 1.43436,-0.11391 2.68114,-0.25314 z m 21.05229,-6.89061 c 0.0899,-0.14552 0.22306,-0.26459 0.29582,-0.26459 0.0728,0 0.0587,0.11907 -0.0312,0.26459 -0.0899,0.14552 -0.22306,0.26458 -0.29582,0.26458 -0.0728,0 -0.0587,-0.11906 0.0312,-0.26458 z m 1.08799,-0.25082 c -0.39457,-0.14107 -0.22782,-0.28025 0.79375,-0.66252 0.71129,-0.26617 1.44497,-0.60324 1.63039,-0.74905 0.18541,-0.14581 0.40531,-0.19691 0.48866,-0.11357 0.0833,0.0833 -0.36602,0.41397 -0.99859,0.73471 -0.63256,0.32074 -1.20965,0.66998 -1.28241,0.77609 -0.0728,0.10611 -0.35707,0.11257 -0.6318,0.0143 z M 54.155924,150.54335 c 0.097,-0.15698 -0.20998,-0.26459 -0.75486,-0.26459 -0.50511,0 -1.79206,-0.16769 -2.85989,-0.37265 -1.06782,-0.20496 -3.31072,-0.81565 -4.98421,-1.35708 -1.67349,-0.54144 -3.2213,-1.0455 -3.43958,-1.12012 -0.35278,-0.12061 -0.35278,-0.0915 0,0.26249 0.21828,0.21899 1.4089,0.8256 2.64583,1.34801 1.23693,0.52241 3.0824,1.07309 4.10104,1.22374 1.01865,0.15064 2.50693,0.31282 3.30729,0.36039 0.80037,0.0476 1.53748,0.10853 1.63804,0.13545 0.10055,0.0269 0.2564,-0.0701 0.34634,-0.21564 z m 48.973576,-4.56406 c -0.0818,-0.90951 -0.2857,-3.97537 -0.45307,-6.81303 -0.18631,-3.15866 -0.23311,-7.39446 -0.12069,-10.92316 l 0.18362,-5.7638 -0.61151,0.12663 c -0.33633,0.0697 -1.51289,0.31524 -2.614555,0.54576 -1.26294,0.26426 -2.61917,0.78297 -3.67053,1.40383 -0.91712,0.54159 -2.22499,1.59401 -2.906381,2.33873 -0.78333,0.85612 -1.4115,1.8777 -1.70826,2.77813 -0.25815,0.78325 -0.53616,2.34241 -0.61781,3.4648 -0.0936,1.2874 -0.0236,2.50825 0.1897,3.30729 0.18598,0.69662 0.68892,1.82834 1.11764,2.51493 0.42872,0.68659 0.80657,1.40097 0.83966,1.5875 0.0331,0.18654 0.43258,1.06555 0.887771,1.95338 0.45519,0.88782 1.13754,1.98254 1.51633,2.43272 0.3788,0.45017 1.11617,1.08267 1.6386,1.40555 0.52243,0.32288 1.3806,0.74097 1.90706,0.9291 0.52645,0.18813 1.770325,0.34728 2.764175,0.35367 l 1.807,0.0116 z m -61.541286,1.25677 c 0,-0.0728 -0.0595,-0.1323 -0.13229,-0.1323 -0.0728,0 -0.13229,0.0595 -0.13229,0.1323 0,0.0728 0.0595,0.13229 0.13229,0.13229 0.0728,0 0.13229,-0.0595 0.13229,-0.13229 z m 46.83125,-1.5875 c 0,-0.0728 -0.0595,-0.1323 -0.13229,-0.1323 -0.0728,0 -0.13229,0.0595 -0.13229,0.1323 0,0.0728 0.0595,0.13229 0.13229,0.13229 0.0728,0 0.13229,-0.0595 0.13229,-0.13229 z m -0.26458,-0.52917 c 0,-0.0728 -0.0595,-0.13229 -0.13229,-0.13229 -0.0728,0 -0.1323,0.0595 -0.1323,0.13229 0,0.0728 0.0595,0.13229 0.1323,0.13229 0.0728,0 0.13229,-0.0595 0.13229,-0.13229 z m -34.31731,-6.41615 c 0.0897,-3.13611 0.33662,-6.47935 0.57595,-7.79729 0.23043,-1.26895 0.76267,-3.4716 1.18275,-4.89479 0.42008,-1.42318 1.07753,-3.65917 1.46101,-4.96885 0.38348,-1.30969 1.227,-3.43025 1.8745,-4.71235 0.64749,-1.28211 1.17726,-2.44297 1.17726,-2.57969 0,-0.13672 -0.0933,-0.24859 -0.20742,-0.24859 -0.11409,0 -1.15588,0.78713 -2.31511,1.74918 -1.15922,0.96205 -2.81803,2.36104 -3.68625,3.10886 -0.86821,0.74782 -3.1304,2.774 -5.02708,4.50264 -1.89668,1.72863 -5.85953,5.41316 -8.80632,8.18784 -2.9468,2.77469 -5.35782,5.17784 -5.35782,5.34035 0,0.1625 0.32743,0.6069 0.72761,0.98755 0.40018,0.38065 1.91823,1.248 3.37344,1.92744 1.4552,0.67943 4.43177,1.88611 6.61458,2.6815 2.18281,0.79539 4.62359,1.60727 5.42396,1.80419 0.80036,0.19692 1.76498,0.36795 2.14358,0.38007 l 0.68838,0.022 z m 68.977716,-3.63802 c 0,-0.0728 -0.0595,-0.13229 -0.13229,-0.13229 -0.0728,0 -0.13229,0.0595 -0.13229,0.13229 0,0.0728 0.0595,0.13229 0.13229,0.13229 0.0728,0 0.13229,-0.0595 0.13229,-0.13229 z m 0.27363,-1.31732 c 0.12847,0.0794 0.1785,-0.3061 0.11117,-0.85666 -0.0673,-0.55056 -0.48802,-1.72763 -0.93488,-2.61571 -0.44685,-0.88809 -1.34856,-2.22754 -2.00379,-2.97657 -0.65523,-0.74902 -1.29803,-1.36186 -1.42843,-1.36186 -0.13041,0 0.43316,0.98226 1.25238,2.18281 0.81921,1.20055 1.76948,2.81333 2.11171,3.58396 0.34223,0.77063 0.57915,1.6636 0.52651,1.98437 -0.0527,0.32078 -0.0445,0.43295 0.018,0.24926 0.0626,-0.18368 0.21885,-0.269 0.34732,-0.1896 z m -63.652206,84.51118 c -0.0959,-0.1552 -0.11766,-0.33893 -0.0483,-0.40829 0.0694,-0.0693 0.1966,0.0576 0.28277,0.28219 0.0862,0.22456 0.10791,0.40828 0.0483,0.40828 -0.0596,0 -0.18685,-0.12698 -0.28277,-0.28218 z m 91.134856,-5.2274 c 0.16082,-0.3005 0.4227,-0.62689 0.58196,-0.72532 0.20747,-0.12822 0.20666,-0.0241 -0.003,0.36741 -0.16083,0.30049 -0.42271,0.62689 -0.58197,0.72531 -0.20746,0.12822 -0.20666,0.0241 0.003,-0.3674 z m 0.95102,-1.36958 c 0.0899,-0.14552 0.22305,-0.26459 0.29581,-0.26459 0.0728,0 0.0587,0.11907 -0.0312,0.26459 -0.0899,0.14552 -0.22305,0.26458 -0.29581,0.26458 -0.0728,0 -0.0587,-0.11906 0.0312,-0.26458 z m 0.52916,-0.79375 c 0.0899,-0.14552 0.22306,-0.26459 0.29582,-0.26459 0.0728,0 0.0587,0.11907 -0.0312,0.26459 -0.0899,0.14552 -0.22306,0.26458 -0.29582,0.26458 -0.0728,0 -0.0587,-0.11906 0.0312,-0.26458 z m 37.54511,-61.78021 c 0.92309,-1.89177 1.93158,-3.97537 2.24108,-4.63021 0.3095,-0.65484 1.09388,-2.02406 1.74307,-3.04271 0.64919,-1.01864 1.61256,-2.60521 2.14081,-3.5257 0.52826,-0.9205 1.01456,-1.61953 1.08067,-1.55342 0.0661,0.0661 -0.21887,0.70019 -0.6333,1.40904 -0.41444,0.70886 -1.09387,2.09559 -1.50985,3.08162 -0.41599,0.98603 -1.30271,2.73999 -1.9705,3.89768 -0.6678,1.15769 -1.7214,3.02984 -2.34134,4.16034 -0.61994,1.13049 -1.42008,2.41263 -1.77808,2.84919 -0.40273,0.49111 -0.011,-0.5177 1.02744,-2.64583 z M 120.96852,86.652871 c -0.20869,-0.251455 -0.22876,-0.403268 -0.0533,-0.403268 0.15475,0 0.35984,0.126983 0.45577,0.282186 0.0959,0.155202 0.11991,0.336673 0.0533,0.403269 -0.0666,0.06659 -0.27169,-0.06039 -0.45576,-0.282187 z"
       id="path3"
       inkscape:export-filename="sigil.svg"
       inkscape:export-xdpi="106.48849"
       inkscape:export-ydpi="106.48849" /></g></svg>
